<svg xmlns="http://www.w3.org/2000/svg" version="1.1" xmlns:xlink="http://www.w3.org/1999/xlink" xmlns:svgjs="http://svgjs.dev/svgjs" width="1000" height="623" viewBox="0 0 1000 623"><g transform="matrix(1,0,0,1,-0.6060606060606233,0.2522267206477409)"><svg viewBox="0 0 396 247" data-background-color="#ffffff" preserveAspectRatio="xMidYMid meet" height="623" width="1000" xmlns="http://www.w3.org/2000/svg" xmlns:xlink="http://www.w3.org/1999/xlink"><g id="tight-bounds" transform="matrix(1,0,0,1,0.2400000000000091,-0.09999999999999432)"><svg viewBox="0 0 395.52 247.2" height="247.2" width="395.52"><g><svg></svg></g><g><svg viewBox="0 0 395.52 247.2" height="247.2" width="395.52"><g transform="matrix(1,0,0,1,75.54432,71.58528001468434)"><svg viewBox="0 0 244.43135999999998 104.02943997063132" height="104.02943997063132" width="244.43135999999998"><g><svg viewBox="0 0 244.43135999999998 104.02943997063132" height="104.02943997063132" width="244.43135999999998"><g><svg viewBox="0 0 414.2313650742153 176.29594225119374" height="104.02943997063132" width="244.43135999999998"><g transform="matrix(1,0,0,1,180.5069343049846,11.76317112559687)"><svg viewBox="0 0 233.72443076923074 152.7696" height="152.7696" width="233.72443076923074"><g id="textblocktransform"><svg viewBox="0 0 233.72443076923074 152.7696" height="152.7696" width="233.72443076923074" id="textblock"><g><svg viewBox="0 0 233.72443076923074 152.7696" height="152.7696" width="233.72443076923074"><g transform="matrix(1,0,0,1,0,0)"><svg width="233.72443076923074" viewBox="2.8499999046325684 -37.29999923706055 71.59000396728516 46.79999923706055" height="152.7696" data-palette-color="#1c4b82"><path d="M5.5 9.5L2.85 9.5 2.85-28.9 5.5-28.9 5.5-26.45Q6.35-27.5 7.7-28.43 9.05-29.35 11.05-29.35L11.05-29.35Q13.05-29.35 14.33-28.53 15.6-27.7 16.32-26.13 17.05-24.55 17.32-22.35 17.6-20.15 17.6-17.45L17.6-17.45 17.6-11.9Q17.6-7.85 16.98-5.1 16.35-2.35 14.88-0.95 13.4 0.45 10.8 0.45L10.8 0.45Q8.95 0.45 7.63-0.5 6.3-1.45 5.5-2.4L5.5-2.4 5.5 9.5ZM10.5-1.6L10.5-1.6Q12.3-1.6 13.28-2.68 14.25-3.75 14.6-6.03 14.95-8.3 14.95-11.8L14.95-11.8 14.95-17.45Q14.95-20.9 14.63-23.08 14.3-25.25 13.35-26.28 12.4-27.3 10.5-27.3L10.5-27.3Q8.9-27.3 7.6-26.38 6.3-25.45 5.5-24.6L5.5-24.6 5.5-4.2Q6.35-3.2 7.65-2.4 8.95-1.6 10.5-1.6ZM25.95 0L23.25 0 23.25-28.9 25.95-28.9 25.95 0ZM25.95-32.7L23.25-32.7 23.25-37.3 25.95-37.3 25.95-32.7ZM33.04 0L30.44 0 37.49-15.05 30.89-28.9 33.59-28.9 38.99-17.45 44.34-28.9 47.09-28.9 40.24-14.8 47.19 0 44.69 0 38.79-12.3 33.04 0ZM54.14 0L51.44 0 51.44-28.9 54.14-28.9 54.14 0ZM54.14-32.7L51.44-32.7 51.44-37.3 54.14-37.3 54.14-32.7ZM67.29 0.45L67.29 0.45Q64.99 0.45 63.34-0.48 61.69-1.4 60.81-3.83 59.94-6.25 59.94-10.7L59.94-10.7 59.94-18.4Q59.94-22.95 60.84-25.3 61.74-27.65 63.41-28.5 65.09-29.35 67.34-29.35L67.34-29.35Q70.04-29.35 71.59-28.2 73.14-27.05 73.79-24.53 74.44-22 74.44-17.85L74.44-17.85 74.44-15.1 62.59-15.1 62.59-10.5Q62.59-7.05 63.06-5.1 63.54-3.15 64.59-2.35 65.64-1.55 67.29-1.55L67.29-1.55Q68.34-1.55 69.39-1.9 70.44-2.25 71.14-3.55 71.84-4.85 71.84-7.6L71.84-7.6 71.84-9.75 74.44-9.75 74.44-7.85Q74.44-4.15 72.92-1.85 71.39 0.45 67.29 0.45ZM62.59-18.9L62.59-16.7 71.84-16.7 71.84-18.95Q71.84-21.55 71.56-23.43 71.29-25.3 70.34-26.33 69.39-27.35 67.34-27.35L67.34-27.35Q65.74-27.35 64.67-26.68 63.59-26 63.09-24.18 62.59-22.35 62.59-18.9L62.59-18.9Z" opacity="1" transform="matrix(1,0,0,1,0,0)" fill="#1c4b82" class="wordmark-text-0" data-fill-palette-color="primary" id="text-0"></path></svg></g></svg></g></svg></g></svg></g><g><svg viewBox="0 0 144.4416982153846 176.29594225119374" height="176.29594225119374" width="144.4416982153846"><g><svg xmlns="http://www.w3.org/2000/svg" xmlns:xlink="http://www.w3.org/1999/xlink" version="1.1" x="0" y="0" viewBox="10.663934707641602 2 78.7360610961914 96.10000610351562" style="enable-background:new 0 0 100 100;" xml:space="preserve" height="176.29594225119374" width="144.4416982153846" class="icon-icon-0" data-fill-palette-color="accent" id="icon-0"><path d="M80.6 66.1c1.1-0.4 2.1-0.7 3.2-1.5 0.5-0.4 1.1-0.8 1.9-1.3 2.3-1.4 3.6-2.4 3.7-3.4 0-0.4-0.2-0.7-0.5-1-0.7-0.5-1.8-0.1-2.9 0.5-0.7 0.3-1.6 0.7-2.1 0.7-0.4 0-1-0.1-1.6-0.3-1.2-0.3-2.5-0.6-3.5 0.2-0.9 0.8-0.9 1.5-1 2 0 0.6-0.1 1.1-3.5 2.4-3.5 1.2-6.5 3.2-8.7 4.6-1.3 0.9-2.7 1.7-3.2 1.7-0.8 0-5.1-2.3-8.8-4.6l-1.5-0.9c2.4-0.3 6.1-0.9 9.9-2.2 0.2-0.1 0.4-0.3 0.4-0.6 0-0.3-0.1-0.5-0.3-0.6-0.2-0.1-3.9-2-7.2-3.1 2-0.5 4.6-1.5 6.4-3.4 0.1-0.1 0.2-0.4 0.2-0.6 1.4 0.3 3 0.7 3.9 0.9 0.9 0.2 1.5 0.1 1.8-0.4 0.4-0.5 0.2-1.3-0.2-1.9 0.2-0.3 0.9-0.7 1.4-1.1 0.5-0.3 0.9-0.7 1.3-1 0.8-0.7 0.5-1.3 0.4-1.4-0.7-1-3.6-0.6-5.1 0.1-1.7 0.9-3.3 0.6-3.6 0.6-0.3-0.1-1.2-0.4-2.3-0.7 4.2-2.8 5-8.9 5-9.2 0 0 0-0.1 0-0.1-0.1-7.5-5.5-9.6-7.5-10.1C59.7 15.3 45.2 2.3 45 2.2 44.8 2 44.6 2 44.4 2c-0.2 0.1-5.2 2.3-9.1 12.7-1.5-3.3-5-6.9-5.1-7.1-0.1-0.1-0.3-0.2-0.5-0.2-0.2 0-0.4 0.1-0.5 0.3-4 7.2-2.7 13.8-2.7 14 0 0 0 0 0 0-0.3 0.1-0.6 0.1-0.9 0.3-1.1 0.5-2 1.3-2.5 2.5-0.1 0.3-0.2 0.6-0.3 0.9-2.6-0.3-5.4 0.4-7.6 1.9-0.8 0.1-4 0.6-4.5 3.2-0.1 0.6 0 1.3 0.4 1.8 0.4 0.5 1.1 1 2 1.3-0.1 0.1-0.1 0.2-0.2 0.2 0 0.1-0.5 1.7-0.1 3 0.2 0.5 0.5 0.9 0.7 1.3 0.4 0.6 0.7 1 0.5 1.5-0.1 0.5-0.4 0.8-0.6 1-0.2 0.2-0.7 0.7-0.4 1.4 0.2 0.5 0.8 0.9 1.2 1 0 0.3 0 0.7 0.2 1 0.1 0.1 0.1 0.1 0.2 0.2l0.1 0.1c0.1 0.4 0.3 0.9 0.8 1.1 0.1 0.1 0.2 0.3 0.2 0.4 0.3 0.5 0.7 1.3 1.6 1.4 1.1 0.1 2.4-0.4 3.3-0.9 0.1 0.1 0.2 0.2 0.3 0.3 0.4 0.4 0.8 1.3 1.3 3 0 0 1.3 4.4 1.6 6.5 0 0 0 0 0 0 0 0 0 0 0 0 0.5 1.8 2.1 4.1 4.4 4.8 1.1 0.4 2.4 0.9 3.5 1.7 4 2.7 4.4 3.6 4.4 3.8 0 0.9 0.5 13 1 17.5 0 0.3 0.2 0.5 0.4 0.6 0.1 0 0.1 0 0.2 0 0.2 0 0.4-0.1 0.5-0.2 0.3-0.3 5.9-6.6 6.7-11 0.6 0.5 1.6 1.2 2.8 1.9 0 0.1 0.1 0.2 0.2 0.2 0.1 0.1 3.2 2.6 7.1 4.8 0.2 0.1 0.3 0.2 0.5 0.3 0.4 0.3 0.9 0.6 2 1.1 1.4 0.6 18 9 19.4 9.7 0.7 0.7 4.5 4.3 6.7 4.6 0.9 0.1 1.4 0.8 1.8 1.4 0.3 0.4 0.5 0.8 1 0.8 0 0 0.1 0 0.1 0 0.3 0 0.6-0.3 0.7-0.6 0.6-1.5-0.1-3.9-2.5-5.6-1.1-0.8-1.4-2.2-1.6-3.4-0.2-1.1-0.4-2.1-1.2-2.5-0.7-0.3-1.3-0.2-1.8 0-0.7 0.2-1.6 0.5-3.5-0.6-1.2-0.7-3.1-2-5-3.3-2-1.4-4.2-3-6.2-4.1 1.9-1.6 7.1-5.9 10-8.7C77.6 67.1 79.1 66.6 80.6 66.1zM41.5 56.8c-0.1 0-0.1 0-0.2 0-0.5-0.3-1-0.8-1.5-1.4 2.3 0 7.8-0.3 11.1-2 0.1 0 0.1-0.1 0.2-0.1 1.1 0.2 2.3 0.3 3.5 0.4-3.2 0-7 0.5-9.9 2.2C43.5 56.6 42.4 56.9 41.5 56.8zM38.9 54.1c-0.5-0.8-0.9-1.5-1.2-1.9l-0.1-0.3c0 0-0.1-0.1-0.1-0.1l11.4 1.1C45.2 54.1 39.7 54.1 38.9 54.1zM63 40.5c-0.1 0.5-1 6.8-5.4 8.8-2.9-0.9-6.4-1.8-7.7-1.7-1.4 0.1-7.5-1.2-11.8-2.2 0.9-1.7 5-7.8 18.1-13.8C57.2 31.8 62.8 33.1 63 40.5zM44.5 3.4c2.1 2 13.7 13.7 11 27-14.2 6.4-18 13.1-18.8 14.6-1.1-0.3-2-0.5-2.5-0.7-0.1 0-0.2 0-0.2-0.1-0.3-2.6-1.5-17 1.9-27.5C39 7.3 43.3 4.2 44.5 3.4zM29.8 9.2c1.3 1.5 4.2 4.9 4.8 7.4-3.3 10.3-2.3 24-2 27.5-0.5-0.1-1-0.1-1.4-0.1l0-0.6c-0.1-1.4-0.5-4.6-0.8-5.2 0 0 0 0 0 0 0.2-0.5 0.4-1 0.5-1.5 0.4-2.2 0-4.6-1.2-6.6 0.8-0.5 1.4-1.2 1.8-2.1 1-2.3-0.2-5-2.5-5.9-0.4-0.2-0.9-0.3-1.3-0.3 0-0.1 0-0.2 0-0.3C27.7 21.5 26.6 15.7 29.8 9.2zM29.2 42.7c-0.1-0.3-0.3-0.4-0.6-0.5-0.1 0-0.5-0.1-0.5-0.3-0.1-0.2 0.1-0.7 0.9-1.7 0.2-0.2 0.3-0.3 0.4-0.5 0.2 1 0.3 2.5 0.5 3.8l0 0.5c-0.2 0-0.4 0-0.6 0.1-0.6 0-1.1 0-1.5-0.1 0.4-0.2 0.8-0.4 1.1-0.7C29.2 43.2 29.3 42.9 29.2 42.7zM26 23.3c0.8-0.3 1.7-0.3 2.5 0 1.7 0.7 2.4 2.6 1.8 4.2-0.3 0.7-0.7 1.2-1.3 1.5-1.9-2.2-3.9-3-4.9-3.3 0-0.2 0.1-0.5 0.2-0.7C24.6 24.3 25.2 23.6 26 23.3zM12.1 31.6c-0.2-0.2-0.2-0.5-0.2-0.8 0.4-1.9 3.5-2.1 3.6-2.1 0.1 0 0.2-0.1 0.3-0.1 2.1-1.5 4.9-2.2 7.4-1.7 0 0 0 0 0 0 0 0 0 0 0 0 0 0 2.7 0.5 5 3.4 1.3 1.9 1.8 4.2 1.4 6.2-0.2 1-0.7 1.9-1.6 2.9-1.1 1.2-1.5 2.2-1.2 3 0.1 0.2 0.2 0.3 0.3 0.5-0.4 0.2-1 0.3-1.4 0.2-0.6-0.5-0.9-1-0.9-1.1-0.1-0.4-0.3-0.9-0.4-1.4 1.1-0.9 1.2-2.1 1-3-0.2-1.1-1-1.9-1.8-1.9-0.4 0-0.8 0-1.1 0.2-1.4-2.6-2.9-4-4.6-4.3 0 0 0 0-0.1 0-0.5 0-1.5 0-1.9 0.4l-1 0.8C13.5 32.5 12.5 32.1 12.1 31.6zM22.1 45.7C22 45.7 22 45.7 22.1 45.7c-0.6-0.4-0.9-0.6-0.9-0.6-0.2-0.1-0.5-0.2-0.7 0-0.9 0.6-2.2 1-2.9 0.9-0.2 0-0.4-0.3-0.6-0.7-0.2-0.4-0.4-0.8-0.8-1 0 0 0-0.1 0-0.2 0-0.3-0.1-0.5-0.3-0.7l-0.2-0.1c0-0.1 0-0.3 0.1-0.4 0.1-0.2 0-0.4-0.1-0.5-0.1-0.2-0.2-0.3-0.4-0.3-0.2 0-0.7-0.2-0.8-0.4 0 0 0 0 0.1-0.1 0.3-0.3 0.7-0.7 0.9-1.6 0.3-1.2-0.3-2-0.7-2.6-0.2-0.3-0.4-0.6-0.6-1-0.2-0.8 0-1.9 0.1-2.2 0-0.1 0-0.2 0-0.3 0.3 0.1 0.6 0.1 0.9 0.2 0.2 0 0.4 0 0.5-0.1l1.2-1c0.1-0.1 0.6-0.1 1-0.1 1.5 0.2 2.9 1.7 4.1 4.5 0.1 0.2 0.4 0.4 0.6 0.4 0.3 0 0.5-0.2 0.6-0.5 0.1-0.4 0.3-0.4 0.5-0.4 0.2 0 0.5 0.4 0.7 0.9 0.1 0.4 0.2 1.3-0.9 1.9-0.3 0.2-0.4 0.5-0.3 0.8 0.2 0.7 0.4 1.3 0.6 1.9 0 0 0 0.1 0 0.1 0 0 0.2 0.4 0.6 0.9 0 0.1 0.1 0.2 0.2 0.3 0.2 0.2 0.4 0.4 0.7 0.5 0.9 0.7 2.3 1.4 4.3 1.2 0.8-0.1 2.9-0.2 4.4 0.2 1.9 0.6 13.8 3.4 16.1 3.2 1.5-0.1 7.5 1.7 11.2 2.9 0 0 0 0 0.1 0 0.1 0 2.2 0.5 4.5-0.7 1-0.5 2.3-0.7 3-0.6-0.3 0.2-0.6 0.5-1 0.7-1.3 0.9-2.5 1.7-1.8 2.7 0.1 0.2 0.2 0.4 0.3 0.6-0.1 0-0.2 0-0.4-0.1-1.7-0.4-6.1-1.5-6.1-1.5 0 0-0.1 0-0.1 0-0.1 0-8-0.6-10.3-1.3 0 0-0.1 0-0.1 0l-12.7-1.2c-0.2 0-0.5 0.1-0.6 0.3-0.1 0.2-0.1 0.4 0 0.7l0.3 0.5c0.2 0.3 0.3 0.5 0.4 0.7l0.1 0.3c0.6 1 1.7 3.1 3.2 4.4-1.6 0.1-4.5-0.3-9.5-3.1-1.1-0.6-3.4-0.2-5.2 0.8-0.5-2.3-1.4-5.5-1.4-5.6C23.2 47.7 22.7 46.5 22.1 45.7zM45.1 71.5c-0.2-0.2-0.5-0.3-0.7-0.2-0.3 0.1-0.4 0.4-0.4 0.7 0.3 2.6-3.3 7.6-5.5 10.3-0.4-5.4-0.8-15.8-0.8-15.9 0 0 0 0 0-0.1-0.1-0.4-0.2-1.4-5-4.7-1.3-0.9-2.7-1.4-3.8-1.8-1.6-0.6-2.9-2.2-3.4-3.6 1.5-1 3.7-1.3 4.2-1 6.8 3.8 10.2 3.6 11.8 2.9 0.1 0 0.1 0 0.2-0.1 1.1 0.1 2.4-0.3 3.8-1.1 4.4-2.5 11.1-2.1 14-1.8-3.2 2.3-7.8 2.6-7.8 2.6-0.3 0-0.6 0.3-0.6 0.6 0 0.3 0.3 0.6 0.6 0.6 2.3 0.1 6.5 2 8.6 3.1-5.8 1.8-11 1.9-11 1.9-0.3 0-0.5 0.2-0.6 0.5-0.1 0.3 0 0.6 0.3 0.7 2.9 1.8 5.2 8.5 6 11C48.5 75.2 45.1 71.5 45.1 71.5zM76.1 86.2c2.4 1.3 3.6 1 4.5 0.7 0.5-0.1 0.6-0.2 0.9-0.1 0.3 0.1 0.4 0.9 0.5 1.6 0.2 1.3 0.6 3.1 2.1 4.3 1.5 1.1 2.1 2.3 2.2 3.2-0.5-0.6-1.2-1.3-2.4-1.4-1.4-0.1-4.4-2.7-6-4.3 0 0-0.1-0.1-0.2-0.1-0.7-0.4-18-9.1-19.5-9.8-1-0.4-1.4-0.7-1.8-1-0.2-0.1-0.4-0.3-0.6-0.4-1.2-0.7-2.4-1.4-3.4-2.1 1 0.3 2 0.5 3.2 0.6 0.2 0 0.4-0.1 0.6-0.2 0.1-0.2 0.2-0.4 0.1-0.6 0-0.2-0.5-1.9-1.3-4 2 1.5 5.1 3.8 7 4.5 2.3 0.8 5.9 3.3 9 5.6C72.9 84.2 74.8 85.5 76.1 86.2zM64.3 77c-0.7-0.4-1.3-0.7-1.9-0.9-2.6-0.9-8.3-5.7-8.4-5.8 0 0 0 0 0 0-0.6-1.4-1.4-2.8-2.2-3.9l1.2 0.8c1.8 1.1 7.9 4.8 9.4 4.8 0.8 0 1.8-0.6 3.9-1.9 2.2-1.4 5.1-3.3 8.4-4.4 3.9-1.4 4.2-2.3 4.3-3.5 0-0.4 0-0.7 0.5-1.1 0.5-0.4 1.4-0.2 2.4 0.1 0.6 0.2 1.3 0.3 1.9 0.3 0.8 0 1.7-0.4 2.6-0.8 0.5-0.2 1.3-0.6 1.6-0.6-0.3 0.6-2.1 1.6-3 2.3-0.7 0.5-1.4 0.9-2 1.3-0.9 0.7-1.8 1-2.8 1.3-1.6 0.5-3.3 1.1-5.6 3.2C71.5 71 65.7 75.8 64.3 77z" fill="#1c4b82" data-fill-palette-color="accent"></path></svg></g></svg></g></svg></g></svg></g></svg></g><path d="M230.673 65.585L230.673 12.3 8.073 12.3 8.073 234.9 230.673 234.9 230.673 181.615 222.543 181.615 222.543 226.77 16.202 226.77 16.202 20.43 222.543 20.43 222.543 65.585Z" fill="#1c4b82" stroke="transparent" data-fill-palette-color="primary"></path></svg></g><defs></defs></svg><rect width="395.52" height="247.2" fill="none" stroke="none" visibility="hidden"></rect></g></svg></g></svg>